<?xml version="1.0" standalone="no"?>

<svg viewBox="0 0 195 95" style="background-color:#ffffff00" version="1.1" xmlns="http://www.w3.org/2000/svg" xmlns:xlink="http://www.w3.org/1999/xlink" xml:space="preserve" x="0px" y="0px" width="195px" height="95px">
	<defs>
		<filter id="filter1" x="-100%" y="-100%" width="300%" height="300%">
			<!-- Sombra -->
			<feOffset result="out" in="SourceGraphic" dx="-0.4" dy="0.9"/>
			<feColorMatrix result="out" in="out" type="matrix" values="0 0 0 0.3 0  0 0 0 0.3 0  0 0 0 0.3 0  0 0 0 0.7 0"/>
			<feGaussianBlur result="out" in="out" stdDeviation="2"/>
			<feBlend in="SourceGraphic" in2="out" mode="normal" result="Sombra1"/>
		</filter>
		<filter id="filter2" x="-100%" y="-100%" width="300%" height="300%">
			<!-- Sombra -->
			<feOffset result="out" in="SourceGraphic" dx="-0.4" dy="0.9"/>
			<feColorMatrix result="out" in="out" type="matrix" values="0 0 0 0.3 0  0 0 0 0.3 0  0 0 0 0.3 0  0 0 0 0.7 0"/>
			<feGaussianBlur result="out" in="out" stdDeviation="2"/>
			<feBlend in="SourceGraphic" in2="out" mode="normal" result="Sombra2"/>
		</filter>
		<filter id="filter3" x="-100%" y="-100%" width="300%" height="300%">
			<!-- Sombra -->
			<feOffset result="out" in="SourceGraphic" dx="-0.4" dy="0.9"/>
			<feColorMatrix result="out" in="out" type="matrix" values="0 0 0 0.3 0  0 0 0 0.3 0  0 0 0 0.3 0  0 0 0 0.7 0"/>
			<feGaussianBlur result="out" in="out" stdDeviation="2"/>
			<feBlend in="SourceGraphic" in2="out" mode="normal" result="Sombra3"/>
		</filter>
		<filter id="filter4" x="-100%" y="-100%" width="300%" height="300%">
			<!-- Sombra -->
			<feOffset result="out" in="SourceGraphic" dx="-0.4" dy="0.9"/>
			<feColorMatrix result="out" in="out" type="matrix" values="0 0 0 0.3 0  0 0 0 0.3 0  0 0 0 0.3 0  0 0 0 0.7 0"/>
			<feGaussianBlur result="out" in="out" stdDeviation="2"/>
			<feBlend in="SourceGraphic" in2="out" mode="normal" result="Sombra4"/>
		</filter>
	</defs>
	<g id="Camada%201">
		<path id="C" filter="url(#filter1)" d="M 62.4 62.6 C 62.4 60.2 60.5 57.8 56.7 55.5 C 53 53.2 49.3 52 45.8 52 C 42.6 52 40.7 53.2 40 55.5 C 38.1 61.6 36.1 64.7 34.1 64.7 C 32.8 64.7 31.8 63.6 30.9 61.3 C 30.1 59.1 29.7 56.4 29.7 53.3 C 29.7 47.3 31.1 42.5 34 38.8 C 34.5 39.9 34.9 41.5 35 43.5 C 35.4 48 37.3 50.3 40.6 50.3 C 42.4 50.3 44.9 49.6 48.1 48.3 C 50.6 47.2 53.2 46.1 55.8 45 C 58 44.3 59.1 42.4 59.1 39.5 C 59.1 34.8 56.8 30.3 52.1 26 C 46.6 21 39.8 18.4 31.6 18.4 C 22.7 18.4 16.2 23 12.1 32 C 9.1 38.8 7.6 47.1 7.7 57.1 C 7.7 65.7 10 72.7 14.7 78.2 C 19.7 84.1 26.6 87.1 35.3 87.1 C 40.8 87.1 45.8 85 50.5 81 C 54.3 77.7 57.6 73.3 60.5 67.7 L 62 64.2 C 62.3 63.7 62.4 63.2 62.4 62.6 L 62.4 62.6 ZM 51.7 72.1 C 46.8 78.6 41.3 81.9 35.3 81.9 C 25.4 81.9 18.7 77.8 15.2 69.5 C 13.7 66 13 61.9 12.9 57.1 C 12.8 50.6 13.3 45 14.5 40.4 C 17.3 29.2 23 23.6 31.6 23.6 C 40.2 23.6 46.5 26.4 50.5 31.9 C 52.2 34.2 53.4 36.9 54.1 40.1 L 40.3 45 C 40 36.7 37.8 32.7 33.8 33.2 C 31.3 33.4 29.1 35.8 27.2 40.4 C 25.3 44.7 24.4 49.4 24.4 54.4 C 24.4 58.8 25.2 62.3 26.9 65 C 28.7 68.1 31.5 69.6 35.3 69.6 C 37.7 69.5 40 67.4 42.3 63.2 C 43.3 61.5 44.1 59.5 44.9 57 L 57.2 62.4 C 55.5 66.2 53.7 69.4 51.7 72.1 L 51.7 72.1 Z" fill="#ffffff"/>
		<path id="H" filter="url(#filter2)" d="M 101.3 47.5 C 97.8 35.5 92.2 29.6 84.2 29.6 C 82.6 29.6 80.9 29.8 79.1 30.4 L 80.1 12.5 C 80.3 8.6 77.4 6.6 71.2 6.6 C 67.1 6.6 63.3 7.5 59.7 9.2 C 56 10.9 54.1 13 54.2 15.2 L 57.3 80 C 57.5 83.7 60.9 85.5 67.5 85.5 C 69.1 85.5 71 85.4 73.1 85.2 C 74.2 85 75.3 84.9 76.3 84.8 C 77.3 84.8 78.1 84.6 78.8 84.2 L 78.8 85.8 C 78.8 87.3 79.3 88.6 80.4 89.7 C 81.5 90.7 82.8 91.2 84.3 91.1 C 89 90.8 93.7 90.5 98.4 90.2 C 101.3 89.8 103 88.7 103.7 86.7 C 104.3 85.1 104.6 81.1 104.6 74.8 C 104.6 64.3 103.5 55.2 101.3 47.5 L 101.3 47.5 ZM 84 85.9 C 84.1 72.4 83.9 62.4 83.3 56 C 82.8 51.9 81.7 49.9 79.7 49.9 C 78.6 49.9 77.6 50.5 76.6 51.8 C 75.6 53.1 75 54.5 74.9 56.1 C 74.7 59.5 75.2 67.3 76.3 79.6 L 62.5 79.8 L 59.4 15 L 74.9 12.2 L 73.3 38.8 C 77.2 36.3 80.7 35 83.7 35 C 89.8 35 94.1 39.9 96.7 49.8 C 98.5 56.5 99.4 65.1 99.4 75.4 C 99.4 78.9 99.3 82 99.1 84.8 L 84 85.9 L 84 85.9 Z" fill="#ffffff"/>
		<path id="E" filter="url(#filter3)" d="M 152.5 46.7 C 152.5 42.4 151.2 37.8 148.6 33 C 145.9 27.9 142.5 24.3 138.5 22.4 C 135.1 20.7 131.7 19.8 128.5 19.8 C 121.2 19.8 115.2 23.7 110.4 31.5 C 105.9 38.6 103.7 46.9 103.7 56.2 C 103.7 64.6 105.7 71.4 109.6 76.5 C 114 82.4 120.1 85.2 128.1 84.8 C 130.8 84.6 132.9 82 134.4 76.9 L 136.9 64.6 C 137.2 63.5 137.3 62.6 137.3 61.9 C 137.3 59.6 136 58.4 133.4 58.4 C 132.9 58.4 132.1 58.5 130.9 58.6 C 129.8 58.7 129 58.8 128.5 58.8 C 126.3 58.8 125.1 58 124.8 56.6 L 147.7 54.3 C 150.8 53.9 152.5 51.4 152.5 46.7 L 152.5 46.7 ZM 119.5 52 C 119.4 52.5 119.4 53.1 119.4 53.8 C 119.4 60.8 121.9 64.4 126.9 64.4 C 128.4 64.4 130 64 131.9 63.3 L 127.9 79.6 C 121.9 79.9 117.1 77.1 113.6 71.2 C 110.5 66 108.9 59.5 108.9 51.8 C 108.9 45.2 110.1 39.5 112.5 34.7 C 115 29.5 118.5 26.5 122.9 25.8 C 125 25.5 126.8 25.3 128.2 25.3 C 139.7 25.3 146 33.2 147.1 49.1 L 119.5 52 L 119.5 52 ZM 127 35.1 C 123.3 35.4 121.3 38.2 120.8 43.4 L 135.4 41.7 C 134.5 37 131.7 34.8 127 35.1 L 127 35.1 Z" fill="#ffffff"/>
		<path id="F" filter="url(#filter4)" d="M 190.1 22.1 C 187.7 21 185.8 20.5 184.4 20.5 L 170.6 21.2 C 170.5 21.2 169.7 21.2 168.4 21.2 C 166.9 21.1 165.6 21 164.5 21 C 155.8 21 151.5 23.1 151.5 27.2 L 151.3 79 C 151.3 80.6 151.9 81.9 153 82.9 C 154.1 83.9 155.5 84.4 157.1 84.2 C 166 83.2 171 82.6 172.2 82.2 C 174.7 81.4 175.9 79.5 175.9 76.4 C 175.9 75.2 175.7 73 175.3 70 L 174.2 59.8 C 177.1 59.5 179.1 59.2 180.1 58.8 C 182.3 57.9 183.3 56.3 183.3 54 C 183.1 49.4 183.1 46.2 183.1 44.4 C 188.1 43.9 190.6 39.5 190.6 31.1 C 190.6 27.8 190.5 26.1 190.1 25.8 L 190.1 22.1 L 190.1 22.1 ZM 167.1 39.9 L 168 45 L 177.7 44 L 178.1 54.2 L 168.5 55.1 L 170.7 77.5 L 156.5 79 L 156.7 27.2 L 184.9 25.7 C 185.2 30.2 185.4 34.5 185.7 38.9 L 167.1 39.9 L 167.1 39.9 Z" fill="#ffffff"/>
	</g>
</svg>